<svg width="25" height="25" viewBox="0 0 25 25" fill="none" xmlns="http://www.w3.org/2000/svg">
<mask id="mask0_142_825" style="mask-type:alpha" maskUnits="userSpaceOnUse" x="0" y="0" width="25" height="25">
<rect x="0.194336" y="0.461426" width="24" height="24" fill="#D9D9D9"/>
</mask>
<g mask="url(#mask0_142_825)">
<path d="M10.0943 15.9614L12.1943 13.8614L14.2943 15.9614L15.6943 14.5614L13.5943 12.4614L15.6943 10.3614L14.2943 8.96143L12.1943 11.0614L10.0943 8.96143L8.69434 10.3614L10.7943 12.4614L8.69434 14.5614L10.0943 15.9614ZM12.1943 22.4614C9.87767 21.8781 7.96517 20.5489 6.45684 18.4739C4.9485 16.3989 4.19434 14.0948 4.19434 11.5614V5.46143L12.1943 2.46143L20.1943 5.46143V11.5614C20.1943 14.0948 19.4402 16.3989 17.9318 18.4739C16.4235 20.5489 14.511 21.8781 12.1943 22.4614ZM12.1943 20.3614C13.9277 19.8114 15.361 18.7114 16.4943 17.0614C17.6277 15.4114 18.1943 13.5781 18.1943 11.5614V6.83643L12.1943 4.58643L6.19434 6.83643V11.5614C6.19434 13.5781 6.761 15.4114 7.89434 17.0614C9.02767 18.7114 10.461 19.8114 12.1943 20.3614Z" fill="#191C1E"/>
</g>
</svg>
