<svg width="18" height="18" viewBox="0 0 18 18" fill="none" xmlns="http://www.w3.org/2000/svg">
<mask id="mask0_104_1547" style="mask-type:alpha" maskUnits="userSpaceOnUse" x="0" y="0" width="18" height="18">
<rect width="18" height="18" fill="#D9D9D9"/>
</mask>
<g mask="url(#mask0_104_1547)">
<path d="M3.75 14.25H10.5V10.5H14.25V3.75H3.75V14.25ZM3.75 15.75C3.3375 15.75 2.98438 15.6031 2.69063 15.3094C2.39688 15.0156 2.25 14.6625 2.25 14.25V3.75C2.25 3.3375 2.39688 2.98438 2.69063 2.69063C2.98438 2.39688 3.3375 2.25 3.75 2.25H14.25C14.6625 2.25 15.0156 2.39688 15.3094 2.69063C15.6031 2.98438 15.75 3.3375 15.75 3.75V11.25L11.25 15.75H3.75ZM5.25 10.5V9H9V10.5H5.25ZM5.25 7.5V6H12.75V7.5H5.25Z" fill="black"/>
</g>
</svg>
